<?xml version="1.0" standalone="no"?>
<!DOCTYPE svg PUBLIC "-//W3C//DTD SVG 20010904//EN"
 "http://www.w3.org/TR/2001/REC-SVG-20010904/DTD/svg10.dtd">
<svg version="1.0" xmlns="http://www.w3.org/2000/svg"
 width="716.000000pt" height="269.000000pt" viewBox="0 0 716.000000 269.000000"
 preserveAspectRatio="xMidYMid meet">

<g transform="translate(0.000000,269.000000) scale(0.100000,-0.100000)"
fill="#000000" stroke="none">
<path d="M10 1375 l0 -1315 875 0 875 0 0 205 0 205 -640 0 -640 0 0 355 0
355 570 0 570 0 0 210 0 210 -570 0 -570 0 0 335 0 335 635 0 635 0 0 210 0
210 -870 0 -870 0 0 -1315z"/>
<path d="M2270 2173 l0 -253 -140 0 -140 0 0 -180 0 -180 139 0 140 0 3 -507
3 -508 28 -79 c62 -177 158 -278 328 -347 108 -44 215 -59 420 -59 l179 0 0
179 0 178 -162 6 c-213 7 -279 30 -326 115 -38 70 -42 126 -42 582 l0 440 260
0 260 0 0 180 0 180 -260 0 -260 0 0 253 0 252 -215 0 -215 0 0 -252z"/>
<path d="M4161 1940 c-108 -15 -163 -29 -246 -63 -216 -87 -364 -255 -427
-483 -21 -74 -22 -100 -22 -419 -1 -241 3 -356 12 -394 49 -209 169 -362 356
-456 153 -76 217 -89 456 -89 189 0 212 2 301 26 303 82 485 272 506 530 l6
68 -204 -2 -204 -3 -6 -46 c-9 -59 -29 -97 -76 -142 -68 -67 -213 -104 -362
-94 -110 8 -174 27 -241 74 -97 68 -137 152 -147 310 l-6 93 621 0 622 0 0
219 c0 231 -10 309 -51 421 -82 220 -282 381 -539 434 -96 19 -267 27 -349 16z
m248 -355 c176 -42 270 -152 292 -341 5 -48 7 -94 5 -101 -4 -10 -88 -13 -421
-13 -370 0 -416 2 -422 16 -10 27 17 183 42 239 27 63 95 134 155 165 92 47
236 61 349 35z"/>
<path d="M6150 1940 c-109 -13 -200 -39 -300 -87 -170 -81 -293 -232 -347
-423 -16 -58 -18 -108 -18 -445 0 -425 2 -439 73 -585 53 -110 169 -223 283
-279 152 -73 214 -85 444 -85 175 0 210 3 280 22 315 87 496 300 513 604 l5
98 -205 0 -205 0 -6 -66 c-7 -87 -54 -184 -109 -224 -77 -56 -140 -73 -273
-73 -102 0 -129 3 -180 23 -79 31 -154 105 -186 185 -24 59 -24 65 -24 380 0
313 0 321 24 380 30 77 114 162 186 189 129 47 337 27 436 -42 71 -50 119
-139 126 -236 l6 -66 205 0 205 0 -6 99 c-22 360 -261 585 -672 631 -100 11
-159 11 -255 0z"/>
</g>
</svg>
